<svg xmlns="http://www.w3.org/2000/svg" xml:lang="en" height="692.5pt" width="457.59999999999997pt" viewBox="-196.40000000000003 -2.0 457.59999999999997 692.5"><polygon points="76.95,40.5 77.27128576765485,40.497451085395966 77.59249065333586,40.489804983259496 77.91353379543078,40.4770636184559 78.23433437304543,40.45923019855565 78.55481162634996,40.43630921302683 78.8748848769097,40.40830643210496 79.19447354799547,40.37522890534039 79.51349718486841,40.3370849598236 79.83187547503401,40.29388419808888 80.14952826846033,40.245637495696975 80.46637559775533,40.1923569984972 80.7823376982983,40.134056119569806 81.0973350283201,40.07074953584926 81.41128828892745,40.002453184429484 81.72411844406591,39.929184258551714 82.03574674041685,39.850961203276206 82.3460947272232,39.76780371083882 82.65508427603895,39.67973271569356 82.96263760039756,39.58677038924249 83.26867727539437,39.48894013425414 83.57312625717779,39.386266578972034 83.87590790234479,39.27877557091464 84.1769459872354,39.16649417036841 84.47616472712164,39.04945064357546 84.77348879528584,38.92767445561777 85.06884334198392,38.80119626299941 85.36215401328819,38.670047905928996 85.65334696980572,38.53426240030407 85.94234890526693,38.39387392939955 86.22908706498006,38.2489178352622 86.51348926414683,38.09943060981353 86.79548390603449,37.94544988566314 87.075,37.78701442663487 87.35196717936148,37.624164118008274 87.62631571911268,37.456939956477655 87.89797655347586,37.28538403983141 88.16688129328872,37.10953955635411 88.43296224322111,36.92945077395411 88.69615241881677,36.74516302901929 88.95638556335646,36.55672271500393 89.21359616453775,36.364177270749344 89.46771947096725,36.16757516854145 89.71869150846157,35.96696590190807 89.96644909615242,35.7623999731593 90.21092986239202,35.55392888067372 90.4520722604549,35.34160510593402 90.68981558403193,35.12548210031504 90.92409998251277,34.90561427162766 91.154866476053,34.68205697042196 91.38205697042197,34.454866476053 91.60561427162766,34.22409998251276 91.82548210031504,33.989815584031916 92.04160510593402,33.7520722604549 92.25392888067373,33.51092986239202 92.46239997315931,33.266449096152414 92.66696590190807,33.01869150846157 92.86757516854145,32.76771947096725 93.06417727074935,32.513596164537745 93.25672271500395,32.25638556335647 93.4451630290193,31.99615241881676 93.62945077395412,31.732962243221102 93.80953955635412,31.466881293288726 93.98538403983142,31.197976553475847 94.15693995647766,30.926315719112665 94.32416411800828,30.65196717936147 94.48701442663489,30.374999999999993 94.64544988566314,30.095483906034485 94.79943060981354,29.81348926414682 94.9489178352622,29.529087064980057 95.09387392939955,29.24234890526692 95.23426240030408,28.953346969805718 95.370047905929,28.662154013288195 95.5011962629994,28.368843341983922 95.62767445561776,28.073488795285847 95.74945064357546,27.77616472712163 95.8664941703684,27.4769459872354 95.97877557091464,27.17590790234479 96.08626657897203,26.87312625717778 96.18894013425414,26.56867727539436 96.2867703892425,26.26263760039756 96.37973271569358,25.955084276038942 96.46780371083882,25.6460947272232 96.55096120327622,25.335746740416848 96.62918425855172,25.024118444065895 96.70245318442949,24.71128828892744 96.77074953584926,24.397335028320104 96.83405611956981,24.0823376982983 96.89235699849722,23.76637559775533 96.94563749569699,23.449528268460327 96.99388419808889,23.13187547503402 97.0370849598236,22.813497184868417 97.0752289053404,22.49447354799547 97.10830643210497,22.174884876909694 97.13630921302683,21.85481162634996 97.15923019855565,21.534334373045425 97.1770636184559,21.213533795430774 97.18980498325949,20.892490653335862 97.19745108539595,20.571285767654853 97.19999999999999,20.249999999999996 97.19999999999999,20.250000000000004 97.19745108539595,19.928714232345143 97.18980498325949,19.60750934666413 97.1770636184559,19.286466204569223 97.15923019855565,18.96566562695457 97.13630921302683,18.645188373650036 97.10830643210497,18.325115123090303 97.0752289053404,18.00552645200453 97.0370849598236,17.686502815131583 96.99388419808888,17.368124524965978 96.94563749569697,17.050471731539666 96.89235699849722,16.733624402244665 96.83405611956981,16.417662301701696 96.77074953584926,16.102664971679893 96.70245318442949,15.788711711072555 96.62918425855172,15.475881555934102 96.55096120327622,15.164253259583148 96.46780371083882,14.853905272776796 96.37973271569358,14.54491572396105 96.2867703892425,14.237362399602437 96.18894013425414,13.93132272460564 96.08626657897203,13.626873742822214 95.97877557091464,13.324092097655212 95.8664941703684,13.023054012764598 95.74945064357546,12.72383527287837 95.62767445561776,12.426511204714147 95.5011962629994,12.131156658016074 95.370047905929,11.837845986711802 95.23426240030408,11.546653030194278 95.09387392939955,11.257651094733077 94.9489178352622,10.970912935019943 94.79943060981354,10.686510735853178 94.64544988566314,10.404516093965512 94.48701442663487,10.125000000000004 94.32416411800828,9.848032820638526 94.15693995647766,9.573684280887328 93.98538403983142,9.302023446524153 93.80953955635411,9.03311870671127 93.62945077395412,8.767037756778896 93.4451630290193,8.50384758118324 93.25672271500395,8.243614436643535 93.06417727074935,7.986403835462252 92.86757516854145,7.732280529032749 92.66696590190807,7.481308491538423 92.46239997315931,7.233550903847584 92.25392888067373,6.989070137607979 92.04160510593402,6.747927739545099 91.82548210031504,6.510184415968076 91.60561427162766,6.275900017487235 91.38205697042197,6.0451335239469985 91.154866476053,5.817943029578029 90.92409998251277,5.594385728372332 90.68981558403193,5.374517899684953 90.4520722604549,5.158394894065972 90.21092986239202,4.946071119326274 89.96644909615242,4.737600026840699 89.71869150846157,4.533034098091928 89.46771947096725,4.332424831458556 89.21359616453775,4.135822729250653 88.95638556335646,3.9432772849960687 88.69615241881675,3.754836970980704 88.43296224322111,3.5705492260458884 88.16688129328872,3.3904604436458814 87.89797655347586,3.214615960168585 87.62631571911267,3.0430600435223383 87.35196717936148,2.8758358819917187 87.075,2.712985573365119 86.79548390603449,2.55455011433686 86.51348926414683,2.4005693901864675 86.22908706498006,2.251082164737804 85.94234890526693,2.106126070600451 85.65334696980572,1.9657375996959239 85.36215401328819,1.8299520940710068 85.06884334198392,1.698803737000593 84.77348879528584,1.5723255443822304 84.47616472712164,1.4505493564245322 84.1769459872354,1.3335058296315925 83.87590790234479,1.2212244290853598 83.57312625717779,1.1137334210279677 83.26867727539437,1.0110598657458572 82.96263760039756,0.9132296107575081 82.65508427603895,0.8202672843064331 82.3460947272232,0.7321962891611767 82.03574674041685,0.6490387967237891 81.72411844406591,0.5708157414482865 81.41128828892745,0.49754681557051045 81.0973350283201,0.42925046415073537 80.7823376982983,0.3659438804301932 80.46637559775533,0.3076430015027925 80.14952826846033,0.25436250430301743 79.83187547503401,0.20611580191111809 79.51349718486841,0.16291504017639794 79.19447354799547,0.1247710946596094 78.8748848769097,0.09169356789503977 78.55481162634996,0.0636907869731694 78.23433437304543,0.04076980144434419 77.91353379543078,0.0229363815440919 77.59249065333586,0.010195016740507023 77.27128576765485,0.0025489146040348133 76.95,3.597122599785507e-15 -76.95,3.597122599785507e-15 -77.27128576765485,0.0025489146040348133 -77.59249065333586,0.010195016740507023 -77.91353379543078,0.0229363815440919 -78.23433437304543,0.04076980144434419 -78.55481162634996,0.0636907869731694 -78.8748848769097,0.09169356789503977 -79.19447354799546,0.1247710946596094 -79.51349718486841,0.16291504017639794 -79.83187547503401,0.20611580191111448 -80.14952826846033,0.25436250430302104 -80.46637559775533,0.3076430015027925 -80.7823376982983,0.3659438804301932 -81.0973350283201,0.42925046415073537 -81.41128828892745,0.49754681557051045 -81.7241184440659,0.5708157414482865 -82.03574674041685,0.6490387967237891 -82.3460947272232,0.7321962891611767 -82.65508427603895,0.8202672843064331 -82.96263760039756,0.9132296107575081 -83.26867727539437,1.0110598657458572 -83.57312625717779,1.1137334210279677 -83.87590790234479,1.221224429085356 -84.1769459872354,1.3335058296315925 -84.47616472712163,1.4505493564245322 -84.77348879528584,1.5723255443822304 -85.06884334198392,1.698803737000593 -85.36215401328819,1.8299520940710068 -85.65334696980572,1.9657375996959239 -85.94234890526693,2.106126070600451 -86.22908706498006,2.251082164737804 -86.51348926414681,2.4005693901864675 -86.79548390603449,2.5545501143368563 -87.075,2.7129855733651227 -87.35196717936147,2.875835881991715 -87.62631571911267,3.0430600435223383 -87.89797655347586,3.214615960168585 -88.16688129328872,3.3904604436458814 -88.43296224322111,3.5705492260458884 -88.69615241881675,3.754836970980704 -88.95638556335646,3.943277284996065 -89.21359616453775,4.135822729250649 -89.46771947096725,4.332424831458559 -89.71869150846157,4.53303409809193 -89.96644909615242,4.737600026840699 -90.21092986239202,4.946071119326274 -90.4520722604549,5.158394894065968 -90.68981558403192,5.374517899684951 -90.92409998251277,5.594385728372329 -91.154866476053,5.817943029578034 -91.38205697042197,6.045133523947 -91.60561427162766,6.275900017487237 -91.82548210031504,6.510184415968076 -92.04160510593402,6.747927739545099 -92.25392888067373,6.989070137607977 -92.46239997315931,7.233550903847578 -92.66696590190807,7.4813084915384245 -92.86757516854145,7.732280529032742 -93.06417727074935,7.986403835462254 -93.25672271500395,8.243614436643535 -93.4451630290193,8.503847581183239 -93.6294507739541,8.767037756778892 -93.80953955635411,9.033118706711269 -93.98538403983142,9.30202344652415 -94.15693995647766,9.573684280887322 -94.32416411800828,9.848032820638526 -94.48701442663489,10.125000000000005 -94.64544988566314,10.404516093965512 -94.79943060981354,10.686510735853178 -94.9489178352622,10.97091293501994 -95.09387392939955,11.257651094733083 -95.23426240030408,11.546653030194275 -95.370047905929,11.837845986711805 -95.5011962629994,12.131156658016069 -95.62767445561776,12.426511204714147 -95.74945064357546,12.72383527287837 -95.8664941703684,13.023054012764597 -95.97877557091464,13.324092097655209 -96.08626657897203,13.62687374282221 -96.18894013425414,13.931322724605643 -96.2867703892425,14.23736239960243 -96.37973271569358,14.54491572396105 -96.46780371083882,14.853905272776794 -96.55096120327622,15.164253259583147 -96.62918425855172,15.4758815559341 -96.70245318442949,15.788711711072551 -96.77074953584926,16.102664971679896 -96.83405611956981,16.417662301701693 -96.89235699849722,16.733624402244665 -96.94563749569697,17.050471731539666 -96.99388419808888,17.368124524965978 -97.0370849598236,17.68650281513158 -97.0752289053404,18.005526452004528 -97.10830643210497,18.32511512309031 -97.13630921302683,18.645188373650033 -97.15923019855565,18.96566562695457 -97.1770636184559,19.286466204569223 -97.18980498325949,19.60750934666413 -97.19745108539595,19.92871423234514 -97.19999999999999,20.25 -97.19999999999999,20.25 -97.19745108539595,20.571285767654857 -97.18980498325949,20.892490653335866 -97.1770636184559,21.213533795430777 -97.15923019855565,21.534334373045436 -97.13630921302683,21.85481162634997 -97.10830643210497,22.1748848769097 -97.0752289053404,22.494473547995476 -97.0370849598236,22.813497184868424 -96.99388419808889,23.131875475034022 -96.94563749569699,23.449528268460334 -96.89235699849722,23.766375597755335 -96.83405611956981,24.08233769829831 -96.77074953584926,24.397335028320114 -96.70245318442949,24.711288288927452 -96.62918425855172,25.024118444065902 -96.55096120327622,25.33574674041685 -96.46780371083882,25.646094727223208 -96.37973271569358,25.955084276038946 -96.2867703892425,26.26263760039757 -96.18894013425414,26.568677275394368 -96.08626657897203,26.87312625717779 -95.97877557091464,27.175907902344793 -95.8664941703684,27.476945987235403 -95.74945064357546,27.776164727121632 -95.62767445561776,28.07348879528585 -95.5011962629994,28.368843341983933 -95.370047905929,28.662154013288202 -95.23426240030408,28.95334696980573 -95.09387392939955,29.242348905266926 -94.9489178352622,29.529087064980065 -94.79943060981354,29.813489264146824 -94.64544988566314,30.09548390603449 -94.48701442663487,30.375000000000007 -94.32416411800828,30.651967179361474 -94.15693995647766,30.926315719112676 -93.98538403983142,31.197976553475854 -93.80953955635412,31.466881293288733 -93.62945077395412,31.73296224322111 -93.4451630290193,31.996152418816763 -93.25672271500395,32.25638556335647 -93.06417727074935,32.51359616453775 -92.86757516854145,32.76771947096726 -92.66696590190807,33.01869150846158 -92.46239997315931,33.26644909615242 -92.25392888067373,33.51092986239202 -92.04160510593404,33.75207226045491 -91.82548210031504,33.98981558403192 -91.60561427162766,34.22409998251277 -91.38205697042196,34.454866476053006 -91.154866476053,34.68205697042198 -90.92409998251277,34.90561427162767 -90.68981558403193,35.12548210031505 -90.4520722604549,35.34160510593403 -90.21092986239202,35.55392888067372 -89.96644909615243,35.762399973159305 -89.71869150846157,35.966965901908075 -89.46771947096725,36.16757516854145 -89.21359616453775,36.36417727074935 -88.95638556335648,36.55672271500393 -88.69615241881677,36.745163029019295 -88.43296224322111,36.92945077395411 -88.16688129328874,37.10953955635412 -87.89797655347586,37.28538403983143 -87.62631571911268,37.45693995647766 -87.35196717936147,37.62416411800829 -87.075,37.78701442663488 -86.79548390603449,37.945449885663145 -86.51348926414683,38.09943060981353 -86.22908706498006,38.248917835262205 -85.94234890526693,38.393873929399554 -85.65334696980572,38.53426240030408 -85.36215401328819,38.670047905928996 -85.06884334198394,38.80119626299941 -84.77348879528584,38.92767445561777 -84.47616472712164,39.04945064357547 -84.1769459872354,39.166494170368416 -83.87590790234479,39.278775570914654 -83.57312625717779,39.38626657897204 -83.26867727539437,39.48894013425415 -82.96263760039757,39.5867703892425 -82.65508427603895,39.679732715693575 -82.34609472722322,39.76780371083883 -82.03574674041685,39.85096120327622 -81.7241184440659,39.92918425855172 -81.41128828892745,40.0024531844295 -81.0973350283201,40.070749535849274 -80.7823376982983,40.13405611956981 -80.46637559775533,40.19235699849722 -80.14952826846034,40.24563749569699 -79.83187547503402,40.29388419808889 -79.51349718486841,40.337084959823606 -79.19447354799547,40.37522890534039 -78.87488487690969,40.408306432104965 -78.55481162634997,40.43630921302683 -78.23433437304543,40.45923019855566 -77.9135337954308,40.477063618455915 -77.59249065333586,40.489804983259496 -77.27128576765485,40.49745108539597 -76.95,40.5 76.95,40.5 " style="stroke:black;fill:none;stroke-width:2;stroke-linecap:round;stroke-linejoin:round;" /><polygon points="-105.30000000000001,113.39999999999999 -97.20000000000002,89.1 97.19999999999997,89.1 80.99999999999999,137.7 -113.4,137.7 " style="stroke:black;fill:none;stroke-width:2;stroke-linecap:round;stroke-linejoin:round;" /><polygon points="-137.70000000000002,332.09999999999997 -129.60000000000002,299.7 97.19999999999996,299.7 80.99999999999997,364.5 -145.8,364.5 " style="stroke:black;fill:none;stroke-width:2;stroke-linecap:round;stroke-linejoin:round;" /><polygon points="-113.40000000000002,494.09999999999997 -32.40000000000003,413.09999999999997 48.599999999999966,494.09999999999997 -32.40000000000003,575.1 " style="stroke:black;fill:none;stroke-width:2;stroke-linecap:round;stroke-linejoin:round;" /><polygon points="238.94999999999996,514.35 239.27128576765483,514.347451085396 239.5924906533358,514.3398049832595 239.91353379543077,514.3270636184559 240.23433437304539,514.3092301985556 240.5548116263499,514.2863092130268 240.87488487690968,514.258306432105 241.19447354799541,514.2252289053404 241.51349718486838,514.1870849598236 241.83187547503397,514.1438841980888 242.14952826846027,514.0956374956969 242.4663755977553,514.0423569984972 242.78233769829828,513.9840561195698 243.09733502832006,513.9207495358493 243.4112882889274,513.8524531844295 243.72411844406588,513.7791842585517 244.0357467404168,513.7009612032762 244.34609472722317,513.6178037108388 244.6550842760389,513.5297327156935 244.9626376003975,513.4367703892425 245.2686772753943,513.3389401342541 245.57312625717773,513.236266578972 245.87590790234472,513.1287755709146 246.17694598723534,513.0164941703683 246.47616472712156,512.8994506435755 246.7734887952858,512.7776744556178 247.06884334198386,512.6511962629994 247.36215401328815,512.520047905929 247.65334696980568,512.384262400304 247.94234890526687,512.2438739293996 248.22908706498,512.0989178352621 248.51348926414678,511.94943060981353 248.79548390603446,511.7954498856631 249.07499999999993,511.63701442663483 249.35196717936142,511.4741641180082 249.62631571911263,511.3069399564776 249.8979765534758,511.13538403983137 250.1668812932887,510.9595395563541 250.43296224322106,510.7794507739541 250.69615241881672,510.59516302901926 250.9563855633564,510.40672271500387 251.21359616453768,510.21417727074936 251.46771947096718,510.0175751685414 251.71869150846152,509.816965901908 251.9664490961524,509.61239997315926 252.21092986239196,509.4039288806737 252.45207226045486,509.19160510593395 252.68981558403186,508.975482100315 252.9240999825127,508.7556142716276 253.15486647605294,508.53205697042193 253.38205697042193,508.30486647605295 253.6056142716276,508.07409998251273 253.82548210031499,507.8398155840319 254.041605105934,507.60207226045486 254.25392888067367,507.36092986239197 254.46239997315925,507.1164490961524 254.66696590190801,506.86869150846155 254.86757516854138,506.6177194709672 255.0641772707493,506.36359616453774 255.2567227150039,506.10638556335647 255.44516302901923,505.84615241881676 255.62945077395406,505.58296224322106 255.80953955635408,505.3168812932887 255.98538403983136,505.0479765534758 256.15693995647763,504.77631571911263 256.32416411800824,504.5019671793615 256.48701442663486,504.22499999999997 256.6454498856631,503.94548390603444 256.7994306098135,503.66348926414685 256.94891783526214,503.37908706498007 257.0938739293995,503.09234890526693 257.23426240030403,502.80334696980566 257.37004790592897,502.5121540132881 257.5011962629993,502.21884334198387 257.6276744556177,501.92348879528583 257.7494506435754,501.6261647271216 257.86649417036836,501.3269459872354 257.9787755709146,501.0259079023448 258.08626657897196,500.72312625717774 258.1889401342541,500.4186772753943 258.2867703892424,500.11263760039753 258.37973271569354,499.80508427603894 258.4678037108387,499.4960947272232 258.55096120327613,499.18574674041685 258.6291842585517,498.87411844406586 258.70245318442943,498.56128828892747 258.7707495358492,498.2473350283201 258.83405611956977,497.9323376982983 258.8923569984972,497.61637559775534 258.94563749569693,497.2995282684603 258.99388419808884,496.981875475034 259.0370849598235,496.6634971848684 259.07522890534034,496.34447354799545 259.1083064321049,496.0248848769097 259.1363092130268,495.7048116263499 259.1592301985556,495.3843343730454 259.17706361845586,495.0635337954307 259.1898049832594,494.74249065333584 259.1974510853959,494.4212857676548 259.19999999999993,494.09999999999997 259.19999999999993,494.09999999999997 259.1974510853959,493.7787142323451 259.1898049832595,493.45750934666415 259.17706361845586,493.1364662045692 259.15923019855563,492.8156656269545 259.1363092130268,492.49518837365 259.10830643210494,492.1751151230903 259.07522890534034,491.85552645200454 259.0370849598236,491.53650281513154 258.99388419808884,491.21812452496596 258.94563749569693,490.90047173153965 258.8923569984972,490.58362440224465 258.83405611956977,490.2676623017017 258.77074953584923,489.95266497167984 258.70245318442943,489.6387117110725 258.6291842585517,489.3258815559341 258.5509612032762,489.01425325958314 258.4678037108388,488.70390527277675 258.37973271569354,488.394915723961 258.28677038924246,488.0873623996024 258.1889401342541,487.7813227246056 258.08626657897196,487.4768737428222 257.9787755709146,487.17409209765515 257.86649417036836,486.87305401276456 257.7494506435754,486.57383527287834 257.6276744556177,486.27651120471415 257.5011962629994,485.98115665801606 257.37004790592897,485.68784598671175 257.23426240030403,485.3966530301942 257.0938739293995,485.10765109473306 256.94891783526214,484.8209129350199 256.7994306098135,484.53651073585314 256.6454498856631,484.25451609396544 256.48701442663486,483.97499999999997 256.32416411800824,483.6980328206385 256.15693995647763,483.4236842808873 255.9853840398314,483.15202344652414 255.80953955635408,482.88311870671123 255.62945077395406,482.61703775677887 255.44516302901926,482.35384758118323 255.25672271500392,482.0936144366435 255.06417727074933,481.83640383546225 254.8675751685414,481.58228052903274 254.66696590190804,481.33130849153844 254.46239997315925,481.08355090384754 254.2539288806737,480.83907013760796 254.041605105934,480.59792773954507 253.825482100315,480.36018441596804 253.60561427162762,480.1259000174872 253.38205697042193,479.895133523947 253.15486647605297,479.667943029578 252.92409998251273,479.4443857283723 252.6898155840319,479.22451789968494 252.45207226045486,479.00839489406593 252.210929862392,478.79607111932626 251.9664490961524,478.5876000268407 251.71869150846155,478.3830340980919 251.4677194709672,478.1824248314585 251.2135961645377,477.98582272925063 250.95638556335643,477.79327728499607 250.69615241881672,477.60483697098067 250.43296224322108,477.42054922604586 250.1668812932887,477.2404604436458 249.89797655347581,477.06461596016857 249.62631571911263,476.89306004352227 249.35196717936145,476.7258358819917 249.07499999999996,476.5629855733651 248.79548390603446,476.4045501143368 248.51348926414678,476.25056939018646 248.22908706498,476.10108216473776 247.94234890526687,475.9561260706004 247.65334696980568,475.8157375996959 247.36215401328815,475.679952094071 247.0688433419839,475.5488037370006 246.7734887952858,475.4223255443822 246.4761647271216,475.3005493564245 246.17694598723534,475.18350582963154 245.87590790234478,475.07122442908536 245.57312625717773,474.96373342102794 245.26867727539434,474.86105986574586 244.96263760039753,474.7632296107575 244.6550842760389,474.6702672843064 244.34609472722317,474.5821962891612 244.0357467404168,474.49903879672377 243.72411844406588,474.4208157414482 243.4112882889274,474.34754681557047 243.09733502832006,474.2792504641507 242.78233769829828,474.2159438804302 242.4663755977553,474.1576430015028 242.14952826846027,474.104362504303 241.83187547503397,474.0561158019111 241.51349718486838,474.0129150401764 241.19447354799541,473.97477109465956 240.87488487690968,473.941693567895 240.55481162634993,473.9136907869731 240.23433437304539,473.8907698014443 239.91353379543077,473.8729363815441 239.59249065333583,473.8601950167405 239.27128576765483,473.85254891460403 238.94999999999996,473.84999999999997 117.44999999999996,473.84999999999997 117.12871423234512,473.85254891460403 116.8075093466641,473.8601950167405 116.48646620456918,473.8729363815441 116.16566562695454,473.8907698014443 115.84518837365,473.9136907869731 115.52511512309026,473.941693567895 115.2055264520045,473.97477109465956 114.88650281513155,474.0129150401764 114.56812452496595,474.0561158019111 114.25047173153963,474.104362504303 113.93362440224463,474.1576430015028 113.61766230170166,474.2159438804302 113.30266497167986,474.2792504641507 112.98871171107251,474.34754681557047 112.67588155593407,474.4208157414482 112.36425325958311,474.49903879672377 112.05390527277676,474.5821962891612 111.74491572396101,474.6702672843064 111.4373623996024,474.7632296107575 111.1313227246056,474.86105986574586 110.82687374282217,474.96373342102794 110.52409209765517,475.07122442908536 110.22305401276456,475.18350582963154 109.92383527287834,475.3005493564245 109.62651120471412,475.4223255443822 109.33115665801604,475.5488037370006 109.03784598671177,475.679952094071 108.74665303019424,475.8157375996959 108.45765109473304,475.9561260706004 108.1709129350199,476.10108216473776 107.88651073585315,476.25056939018646 107.60451609396547,476.4045501143368 107.32499999999996,476.5629855733651 107.0480328206385,476.7258358819917 106.7736842808873,476.89306004352227 106.5020234465241,477.06461596016857 106.23311870671124,477.2404604436458 105.96703775677885,477.42054922604586 105.70384758118321,477.60483697098067 105.4436144366435,477.79327728499607 105.18640383546222,477.98582272925063 104.93228052903271,478.18242483145855 104.68130849153839,478.3830340980919 104.43355090384755,478.5876000268407 104.18907013760794,478.79607111932626 103.94792773954507,479.00839489406593 103.71018441596804,479.22451789968494 103.47590001748719,479.4443857283723 103.24513352394696,479.667943029578 103.01794302957799,479.895133523947 102.7943857283723,480.1259000174872 102.57451789968492,480.36018441596804 102.35839489406594,480.59792773954507 102.14607111932624,480.83907013760796 101.93760002684066,481.08355090384754 101.73303409809189,481.33130849153844 101.53242483145851,481.5822805290327 101.33582272925061,481.83640383546225 101.14327728499602,482.0936144366435 100.95483697098067,482.35384758118323 100.77054922604586,482.6170377567788 100.59046044364585,482.88311870671123 100.41461596016855,483.15202344652414 100.2430600435223,483.4236842808873 100.07583588199168,483.6980328206385 99.91298557336508,483.97499999999997 99.75455011433682,484.25451609396544 99.60056939018642,484.53651073585314 99.45108216473777,484.8209129350199 99.30612607060041,485.10765109473306 99.16573759969589,485.3966530301942 99.02995209407096,485.68784598671175 98.89880373700056,485.98115665801606 98.7723255443822,486.27651120471415 98.6505493564245,486.57383527287834 98.53350582963157,486.87305401276456 98.42122442908533,487.17409209765515 98.31373342102793,487.4768737428222 98.21105986574581,487.7813227246056 98.11322961075746,488.0873623996024 98.02026728430639,488.394915723961 97.93219628916114,488.70390527277675 97.84903879672375,489.01425325958314 97.77081574144825,489.3258815559341 97.69754681557048,489.6387117110725 97.6292504641507,489.95266497167984 97.56594388043015,490.26766230170165 97.50764300150274,490.58362440224465 97.45436250430299,490.90047173153965 97.40611580191108,491.21812452496596 97.36291504017636,491.53650281513154 97.32477109465957,491.85552645200454 97.291693567895,492.1751151230903 97.26369078697313,492.49518837365 97.24076980144432,492.81566562695457 97.22293638154406,493.1364662045692 97.21019501674047,493.45750934666415 97.20254891460401,493.7787142323451 97.19999999999996,494.09999999999997 97.19999999999996,494.09999999999997 97.20254891460401,494.4212857676548 97.21019501674047,494.74249065333584 97.22293638154406,495.0635337954307 97.24076980144432,495.3843343730454 97.26369078697313,495.7048116263499 97.291693567895,496.0248848769097 97.32477109465957,496.34447354799545 97.36291504017636,496.6634971848684 97.40611580191107,496.981875475034 97.45436250430298,497.2995282684603 97.50764300150274,497.61637559775534 97.56594388043015,497.9323376982983 97.6292504641507,498.2473350283201 97.69754681557048,498.56128828892747 97.77081574144825,498.87411844406586 97.84903879672375,499.18574674041685 97.93219628916114,499.4960947272232 98.02026728430639,499.80508427603894 98.11322961075746,500.11263760039753 98.21105986574581,500.4186772753943 98.31373342102793,500.72312625717774 98.42122442908533,501.0259079023448 98.53350582963157,501.3269459872354 98.6505493564245,501.6261647271216 98.7723255443822,501.92348879528583 98.89880373700056,502.21884334198387 99.02995209407096,502.5121540132882 99.16573759969589,502.8033469698057 99.30612607060041,503.09234890526693 99.45108216473777,503.37908706498007 99.60056939018642,503.66348926414685 99.75455011433682,503.94548390603444 99.91298557336509,504.22499999999997 100.07583588199168,504.5019671793615 100.2430600435223,504.7763157191127 100.41461596016855,505.0479765534758 100.59046044364584,505.3168812932887 100.77054922604584,505.58296224322106 100.95483697098067,505.84615241881676 101.14327728499602,506.10638556335647 101.33582272925061,506.36359616453774 101.53242483145851,506.61771947096724 101.73303409809189,506.86869150846155 101.93760002684066,507.1164490961524 102.14607111932624,507.36092986239197 102.35839489406592,507.60207226045486 102.57451789968492,507.8398155840319 102.7943857283723,508.07409998251273 103.017943029578,508.30486647605295 103.24513352394696,508.53205697042193 103.47590001748719,508.7556142716276 103.71018441596803,508.975482100315 103.94792773954507,509.19160510593406 104.18907013760794,509.4039288806737 104.43355090384753,509.61239997315926 104.68130849153839,509.816965901908 104.93228052903271,510.0175751685414 105.18640383546222,510.21417727074936 105.44361443664349,510.40672271500387 105.7038475811832,510.59516302901926 105.96703775677885,510.7794507739541 106.23311870671122,510.9595395563541 106.5020234465241,511.13538403983137 106.77368428088728,511.30693995647766 107.0480328206385,511.4741641180082 107.32499999999996,511.6370144266349 107.60451609396547,511.7954498856631 107.88651073585314,511.94943060981353 108.1709129350199,512.0989178352622 108.45765109473304,512.2438739293996 108.74665303019424,512.384262400304 109.03784598671177,512.520047905929 109.33115665801603,512.6511962629994 109.62651120471412,512.7776744556178 109.92383527287832,512.8994506435755 110.22305401276456,513.0164941703684 110.52409209765517,513.1287755709146 110.82687374282217,513.236266578972 111.1313227246056,513.3389401342541 111.43736239960239,513.4367703892425 111.74491572396101,513.5297327156935 112.05390527277675,513.6178037108388 112.36425325958311,513.7009612032762 112.67588155593407,513.7791842585517 112.98871171107251,513.8524531844295 113.30266497167986,513.9207495358493 113.61766230170166,513.9840561195698 113.93362440224463,514.0423569984972 114.25047173153962,514.0956374956969 114.56812452496594,514.1438841980888 114.88650281513155,514.1870849598236 115.20552645200449,514.2252289053404 115.52511512309027,514.258306432105 115.84518837364999,514.2863092130268 116.16566562695454,514.3092301985556 116.48646620456917,514.3270636184559 116.8075093466641,514.3398049832595 117.12871423234512,514.347451085396 117.44999999999996,514.35 238.94999999999996,514.35 " style="stroke:black;fill:none;stroke-width:2;stroke-linecap:round;stroke-linejoin:round;" /><path d="M 0.0,40.5 L -4.463837582892102e-15,64.8 L -7.625095819546128e-15,81.0" style="stroke:black;fill:none;stroke-width:2;stroke-linecap:round;stroke-linejoin:round;" /><path d="M -8.606050635848877e-15 87.1 L -2.4300000000000077 81.0 L 2.4299999999999917 81.0 Z" style="stroke:black;fill:black;stroke-linecap:butt;stroke-linejoin:miter;" /><path d="M -16.200000000000006,137.7 L -16.20000000000001,162.0 L -16.200000000000014,178.2" style="stroke:black;fill:none;stroke-width:2;stroke-linecap:round;stroke-linejoin:round;" /><path d="M -16.200000000000014 184.29999999999998 L -18.630000000000013 178.19999999999996 L -13.770000000000014 178.19999999999996 Z" style="stroke:black;fill:black;stroke-linecap:butt;stroke-linejoin:miter;" /><path d="M -113.4,218.7 L -113.4,186.29999999999998 L 80.99999999999999,186.29999999999998 L 80.99999999999999,251.1 L -113.4,251.1 L -113.4,218.7" style="stroke:black;fill:none;stroke-width:2;stroke-linecap:round;stroke-linejoin:round;" /><path d="M -16.200000000000014,251.1 L -16.200000000000017,275.4 L -16.20000000000002,291.59999999999997" style="stroke:black;fill:none;stroke-width:2;stroke-linecap:round;stroke-linejoin:round;" /><path d="M -16.20000000000002 297.7 L -18.63000000000002 291.59999999999997 L -13.770000000000021 291.59999999999997 Z" style="stroke:black;fill:black;stroke-linecap:butt;stroke-linejoin:miter;" /><path d="M -32.40000000000002,364.5 L -32.40000000000003,388.79999999999995 L -32.40000000000003,405.0" style="stroke:black;fill:none;stroke-width:2;stroke-linecap:round;stroke-linejoin:round;" /><path d="M -32.40000000000003 411.09999999999997 L -34.83000000000003 404.99999999999994 L -29.970000000000027 404.99999999999994 Z" style="stroke:black;fill:black;stroke-linecap:butt;stroke-linejoin:miter;" /><path d="M 48.599999999999966,494.09999999999997 L 72.89999999999996,494.09999999999997 L 89.09999999999997,494.09999999999997" style="stroke:black;fill:none;stroke-width:2;stroke-linecap:round;stroke-linejoin:round;" /><path d="M 95.19999999999996 494.09999999999997 L 89.09999999999997 496.53 L 89.09999999999997 491.66999999999996 Z" style="stroke:black;fill:black;stroke-linecap:butt;stroke-linejoin:miter;" /><path d="M -32.40000000000003,575.1 L -32.400000000000034,599.4 L -32.400000000000034,615.6" style="stroke:black;fill:none;stroke-width:2;stroke-linecap:round;stroke-linejoin:round;" /><path d="M -32.400000000000034 621.6999999999999 L -34.830000000000034 615.6 L -29.970000000000034 615.6 Z" style="stroke:black;fill:black;stroke-linecap:butt;stroke-linejoin:miter;" /><path d="M -194.40000000000003,656.1 L -194.40000000000003,623.6999999999999 L 129.59999999999997,623.6999999999999 L 129.59999999999997,688.5 L -194.40000000000003,688.5 L -194.40000000000003,656.1" style="stroke:black;fill:none;stroke-width:2;stroke-linecap:round;stroke-linejoin:round;" /><text x="0.0" y="12.550000000000002" fill="black" font-size="14" font-family="sans-serif" text-anchor="middle" transform="rotate(0 0.0 18.150000000000002)"><tspan x="0.0" dy="11.200000000000001">Data send from HIVEMQ</tspan></text><text x="-8.100000000000009" y="97.3" fill="black" font-size="14" font-family="sans-serif" text-anchor="middle" transform="rotate(0 -8.100000000000009 111.3)"><tspan x="-8.100000000000009" dy="14"> receive into on_message</tspan><tspan x="-8.100000000000009" dy="14">in comm_mqtt.MQTTConn</tspan></text><text x="-16.200000000000014" y="202.6" fill="black" font-size="14" font-family="sans-serif" text-anchor="middle" transform="rotate(0 -16.200000000000014 216.6)"><tspan x="-16.200000000000014" dy="14">process input message </tspan><tspan x="-16.200000000000014" dy="14"> into a sensor status</tspan></text><text x="-24.300000000000022" y="316.0" fill="black" font-size="14" font-family="sans-serif" text-anchor="middle" transform="rotate(0 -24.300000000000022 330.0)"><tspan x="-24.300000000000022" dy="14">send sensor status to</tspan><tspan x="-24.300000000000022" dy="14">main_gui.SensorUI.chang_status</tspan></text><text x="-28.18800000000003" y="577.212" fill="black" font-size="14" font-family="sans-serif" text-anchor="start" transform="rotate(0 -28.18800000000003 577.212)"><tspan x="-28.18800000000003" dy="11.200000000000001">Yes</tspan></text><text x="52.81199999999996" y="476.588" fill="black" font-size="14" font-family="sans-serif" text-anchor="start" transform="rotate(0 52.81199999999996 487.788)"><tspan x="52.81199999999996" dy="11.200000000000001">No</tspan></text><text x="-32.40000000000003" y="471.0" fill="black" font-size="14" font-family="sans-serif" text-anchor="middle" transform="rotate(0 -32.40000000000003 492.0)"><tspan x="-32.40000000000003" dy="14">Is the name from </tspan><tspan x="-32.40000000000003" dy="14">the data found in </tspan><tspan x="-32.40000000000003" dy="14">the NAMES list</tspan></text><text x="178.19999999999996" y="486.40000000000003" fill="black" font-size="14" font-family="sans-serif" text-anchor="middle" transform="rotate(0 178.19999999999996 492.0)"><tspan x="178.19999999999996" dy="11.200000000000001">Exit with no change</tspan></text><text x="-32.400000000000034" y="640.0" fill="black" font-size="14" font-family="sans-serif" text-anchor="middle" transform="rotate(0 -32.400000000000034 654.0)"><tspan x="-32.400000000000034" dy="14">call main_gui.Status.StatusButton.toggle_color</tspan><tspan x="-32.400000000000034" dy="14">and set the proper color the indicator</tspan></text></svg>